<svg width="21" height="21" viewBox="0 0 21 21" fill="none" xmlns="http://www.w3.org/2000/svg">
<g id="Star">
<path id="Star_2" d="M9.91674 1.93515C10.2836 1.1919 11.3434 1.1919 11.7102 1.93515L13.5197 5.60164C13.6654 5.89678 13.947 6.10135 14.2727 6.14868L18.3189 6.73663C19.1391 6.85581 19.4666 7.86378 18.8731 8.44232L15.9452 11.2963C15.7095 11.526 15.602 11.857 15.6576 12.1814L16.3488 16.2113C16.4889 17.0282 15.6315 17.6511 14.8979 17.2654L11.2788 15.3628C10.9875 15.2097 10.6395 15.2097 10.3481 15.3628L6.7291 17.2654C5.99547 17.6511 5.13804 17.0282 5.27815 16.2113L5.96932 12.1814C6.02496 11.857 5.91741 11.526 5.68173 11.2963L2.75386 8.44232C2.16034 7.86378 2.48785 6.85581 3.30807 6.73663L7.35428 6.14868C7.67999 6.10135 7.96156 5.89678 8.10722 5.60164L9.91674 1.93515Z" fill="#2D2D2D"/>
</g>
</svg>
